# xmcd
#
# Track frame offsets: 
#        150
#        15321
#        39118
#        59278
#        73302
#        90551
#        105065
#        127192
#        148021
#        163332
#        177201
#        193343
#        213951
#        231023
#
# Disc length: 3285 seconds
#
# Revision: 0
# Processed by: cddbd v1.5.2PL0 Copyright (c) Steve Scherf et al.
# Submitted via: ExactAudioCopy v0.95a5
#
DISCID=be0cd30e
DTITLE=Various Artist - BLUE SAX! LIVE! SEASON 2009 - 10 cd3 Language
DYEAR=2011
DGENRE=Blues
TTITLE0=Macke  Pokloni mi
TTITLE1=Otprilike ovako - Novo jutro
TTITLE2=Olovni ples -Sudeta Blues
TTITLE3=Neven Duzevic - Da Zagreb ima deltu
TTITLE4=Greenhouse Blues Band - Slusaj sebe
TTITLE5=Tomislav Goluban and Lpfb feat. Miroslav Evacic - Isel budem v k
TTITLE5=leticu
TTITLE6=Arthur - Istina masina
TTITLE7=Moonshine - Imas li snage
TTITLE8=Juraj Belekovic and S.O.S. Band - Idemo na more
TTITLE9=VIS Peri deri - Jura i cucki
TTITLE10=Nuna Du - Jos jedan krug
TTITLE11=Francesko and Southern Cooking - Lanterna
TTITLE12=Almanah - Dodirni me
TTITLE13=Ivan Skrabe - Covjek vjecite tuge
EXTD=
EXTT0=
EXTT1=
EXTT2=
EXTT3=
EXTT4=
EXTT5=
EXTT6=
EXTT7=
EXTT8=
EXTT9=
EXTT10=
EXTT11=
EXTT12=
EXTT13=
PLAYORDER=
